<svg width="153" height="153" viewBox="0 0 153 153" fill="none" xmlns="http://www.w3.org/2000/svg">
<circle cx="76.5" cy="76.5" r="75" stroke="white" stroke-width="3"/>
<path fill-rule="evenodd" clip-rule="evenodd" d="M66.6614 32.2784C66.3387 32.4227 65.8277 32.8023 65.5258 33.122C65.0629 33.612 29.7875 83.8765 28.7661 85.5011C28.5754 85.8044 28.1108 86.5401 27.7333 87.1359C27.3559 87.7318 26.8157 88.9284 26.5327 89.795C26.0714 91.2085 26.0166 91.6852 26.001 94.4239C25.9824 97.7166 26.2187 99.3936 26.9955 101.482C28.2668 104.9 31.0873 107.523 34.8634 108.798C36.2879 109.279 44.6378 111.193 55.5281 113.535C76.1223 117.962 90.7823 121.013 91.3981 121C92.2441 120.981 93.1201 120.655 93.804 120.105C94.244 119.75 124.585 73.5388 125.574 71.7159C125.88 71.1517 125.924 70.3203 125.975 64.0903C126.006 60.2445 126.006 56.1711 125.975 55.0385L125.918 52.9794L122.153 58.7118L118.389 64.4441V66.5915V68.7388L103.996 90.7897C96.0809 102.918 89.5905 112.849 89.5735 112.86C89.534 112.884 76.1528 110.049 62.4568 107.114C48.201 104.06 38.958 101.98 37.4868 101.496C34.961 100.664 34.0794 99.4911 33.7039 96.4617C33.2021 92.4132 34.2085 89.9522 36.3402 90.0154C37.5916 90.0527 49.5878 92.7853 75.1685 98.86C80.923 100.227 86.1401 101.421 86.762 101.514C88.1721 101.726 89.3206 101.376 90.1821 100.473C91.1239 99.4854 125.366 45.7066 125.755 44.6042C126.054 43.757 126.068 43.4976 125.859 42.7089C125.538 41.4997 124.8 40.5612 123.8 40.0881C123.186 39.7979 116.336 38.7485 96.094 35.8431C81.3044 33.7206 68.7638 31.9912 68.2259 32C67.6881 32.0089 66.9841 32.1342 66.6614 32.2784ZM93.1606 43.2289C105.476 44.9891 115.581 46.4502 115.616 46.476C115.688 46.5298 86.1687 92.8311 85.845 93.1713C85.6858 93.3385 83.7599 92.9495 78.2976 91.6468C67.4881 89.0686 49.4855 84.8706 44.5997 83.7888C42.2537 83.2696 40.2855 82.7955 40.2259 82.7354C40.1345 82.6432 68.9887 41.224 69.8544 40.2049C70.0165 40.0138 70.2888 39.8958 70.4589 39.9431C70.6291 39.9902 80.8448 41.4688 93.1606 43.2289ZM58.3057 61.7515C51.1286 72.0708 45.282 80.5398 45.3133 80.5713C45.4081 80.667 83.6537 89.4978 83.969 89.4968C84.2275 89.496 109.981 49.6736 110.132 49.0414C110.177 48.8521 91.5096 45.9353 71.9417 43.0747C71.3638 42.9902 71.1579 43.2725 58.3057 61.7515ZM89.1217 50.6181C92.5598 51.798 91.5078 54.9763 87.4002 55.8201C84.6028 56.3945 81.6284 55.1918 81.5797 53.4661C81.5164 51.2216 85.9745 49.5379 89.1217 50.6181ZM84.7618 56.9659C87.0466 58.4308 90.2584 63.0409 90.7197 65.5182C90.8298 66.1099 90.7688 66.2848 90.2932 66.7396C89.6805 67.3256 87.4995 68.4844 85.5333 69.2687C82.2323 70.5854 77.9544 71.5559 74.7498 71.7151C72.6449 71.8197 72.403 71.7939 71.5416 71.3739C69.6768 70.4647 66.6917 67.1747 65.5586 64.7797C64.927 63.4447 64.8476 62.4263 65.322 61.7438C65.9707 60.8112 70.9126 58.8426 76.0486 57.4711C78.8387 56.726 80.5149 56.4467 82.3172 56.4262C83.7274 56.4102 83.9834 56.4668 84.7618 56.9659ZM72.1869 72.8587C73.973 73.5794 74.5065 75.1112 73.4098 76.3693C71.0994 79.0197 64.4124 78.406 64.4124 75.5434C64.4124 74.6523 64.7926 74.0752 65.8023 73.4331C67.4932 72.358 70.3165 72.1039 72.1869 72.8587Z" fill="white"/>
</svg>
