<svg width="165" height="165" viewBox="0 0 165 165" fill="none" xmlns="http://www.w3.org/2000/svg">
<g filter="url(#filter0_d_21_5)">
<circle cx="82.5" cy="81.5" r="75" stroke="#0558B4" stroke-width="3"/>
<path fill-rule="evenodd" clip-rule="evenodd" d="M72.6614 37.2784C72.3387 37.4228 71.8277 37.8024 71.5258 38.122C71.0629 38.6121 35.7875 88.8765 34.7661 90.5011C34.5754 90.8045 34.1107 91.5402 33.7333 92.136C33.3559 92.7318 32.8157 93.9284 32.5327 94.7951C32.0714 96.2086 32.0166 96.6852 32.001 99.4239C31.9824 102.717 32.2187 104.394 32.9954 106.482C34.2668 109.9 37.0873 112.523 40.8634 113.798C42.2879 114.279 50.6378 116.193 61.5281 118.535C82.1223 122.962 96.7823 126.013 97.3981 126C98.2441 125.981 99.1201 125.656 99.8039 125.105C100.244 124.75 130.585 78.5389 131.574 76.7159C131.88 76.1518 131.924 75.3204 131.975 69.0904C132.006 65.2445 132.006 61.1712 131.975 60.0386L131.918 57.9795L128.153 63.7119L124.388 69.4442V71.5915V73.7389L109.996 95.7898C102.081 107.918 95.5905 117.849 95.5735 117.86C95.534 117.884 82.1528 115.049 68.4567 112.115C54.201 109.06 44.958 106.98 43.4867 106.496C40.961 105.664 40.0794 104.491 39.7039 101.462C39.2021 97.4132 40.2085 94.9523 42.3401 95.0155C43.5916 95.0527 55.5878 97.7853 81.1685 103.86C86.923 105.227 92.1401 106.421 92.762 106.514C94.172 106.726 95.3206 106.376 96.1821 105.473C97.1239 104.485 131.366 50.7067 131.755 49.6043C132.054 48.7571 132.068 48.4977 131.859 47.709C131.538 46.4998 130.8 45.5612 129.8 45.0881C129.186 44.798 122.336 43.7485 102.094 40.8432C87.3044 38.7206 74.7637 36.9912 74.2259 37.0001C73.6881 37.009 72.9841 37.1342 72.6614 37.2784ZM99.1605 48.229C111.476 49.9891 121.581 51.4503 121.616 51.4761C121.688 51.5298 92.1687 97.8312 91.845 98.1714C91.6858 98.3386 89.7599 97.9496 84.2976 96.6468C73.4881 94.0687 55.4855 89.8706 50.5997 88.7889C48.2537 88.2696 46.2855 87.7955 46.2258 87.7355C46.1345 87.6433 74.9886 46.224 75.8544 45.2049C76.0165 45.0139 76.2888 44.8959 76.4589 44.9431C76.629 44.9902 86.8448 46.4689 99.1605 48.229ZM64.3057 66.7516C57.1286 77.0709 51.282 85.5398 51.3133 85.5713C51.4081 85.6671 89.6537 94.4979 89.969 94.4969C90.2275 94.4961 115.981 54.6737 116.132 54.0414C116.177 53.8521 97.5096 50.9354 77.9417 48.0748C77.3638 47.9903 77.1578 48.2725 64.3057 66.7516ZM95.1217 55.6182C98.5598 56.798 97.5078 59.9764 93.4002 60.8202C90.6028 61.3945 87.6284 60.1918 87.5797 58.4662C87.5164 56.2217 91.9745 54.538 95.1217 55.6182ZM90.7618 61.966C93.0466 63.4308 96.2583 68.0409 96.7197 70.5182C96.8298 71.1099 96.7688 71.2848 96.2932 71.7397C95.6804 72.3256 93.4995 73.4844 91.5333 74.2688C88.2323 75.5855 83.9543 76.556 80.7498 76.7151C78.6449 76.8197 78.403 76.7939 77.5415 76.374C75.6768 75.4648 72.6917 72.1748 71.5586 69.7798C70.9269 68.4447 70.8475 67.4264 71.322 66.7439C71.9707 65.8112 76.9126 63.8427 82.0486 62.4712C84.8387 61.726 86.5149 61.4467 88.3172 61.4263C89.7274 61.4103 89.9834 61.4668 90.7618 61.966ZM78.1869 77.8588C79.973 78.5795 80.5065 80.1113 79.4098 81.3694C77.0994 84.0198 70.4124 83.406 70.4124 80.5435C70.4124 79.6524 70.7926 79.0752 71.8023 78.4331C73.4931 77.3581 76.3165 77.104 78.1869 77.8588Z" fill="#0558B4"/>
</g>
<defs>
<filter id="filter0_d_21_5" x="0" y="0" width="165" height="165" filterUnits="userSpaceOnUse" color-interpolation-filters="sRGB">
<feFlood flood-opacity="0" result="BackgroundImageFix"/>
<feColorMatrix in="SourceAlpha" type="matrix" values="0 0 0 0 0 0 0 0 0 0 0 0 0 0 0 0 0 0 127 0" result="hardAlpha"/>
<feOffset dy="1"/>
<feGaussianBlur stdDeviation="3"/>
<feComposite in2="hardAlpha" operator="out"/>
<feColorMatrix type="matrix" values="0 0 0 0 0.0196078 0 0 0 0 0.345098 0 0 0 0 0.705882 0 0 0 1 0"/>
<feBlend mode="normal" in2="BackgroundImageFix" result="effect1_dropShadow_21_5"/>
<feBlend mode="normal" in="SourceGraphic" in2="effect1_dropShadow_21_5" result="shape"/>
</filter>
</defs>
</svg>
