<svg width="121" height="143" viewBox="0 0 121 143" fill="none" xmlns="http://www.w3.org/2000/svg">
<path fill-rule="evenodd" clip-rule="evenodd" d="M54.3059 0.494032C45.6371 1.96394 37.0918 6.69797 31.603 13.0715C18.1535 28.6888 18.8893 51.2494 33.3184 65.6703C47.7029 80.0457 70.3391 80.8113 85.8753 67.448C90.6676 63.3258 95.0937 56.6407 97.0976 50.4994C102.911 32.6793 94.9956 13.1447 78.4735 4.53782C70.8862 0.584826 62.2714 -0.856534 54.3059 0.494032ZM64.7357 11.3742C79.4828 13.6547 89.8537 27.6137 87.7064 42.2921C84.8326 61.9333 62.9689 72.2374 46.135 61.8837C36.5109 55.9646 31.3624 44.4932 33.4568 33.6343C36.3254 18.7609 49.9235 9.08373 64.7357 11.3742ZM96.7276 71.553C95.9279 71.9488 94.9802 72.7612 94.6212 73.3582C92.8734 76.2674 93.3635 78.148 96.8587 81.9414C104.599 90.3419 109.182 100.999 109.924 112.324C110.218 116.808 109.904 117.712 107.165 120.273C96.6368 130.115 65.6765 134.719 39.6806 130.309C28.4439 128.403 18.4839 124.583 14.0485 120.479C11.1427 117.79 10.8016 116.881 11.0683 112.529C11.7566 101.287 16.3771 90.3361 23.8343 82.2733C26.6162 79.2654 27.2467 78.0393 27.024 76.0676C26.6087 72.3849 22.4427 70.015 19.274 71.6593C17.9563 72.343 14.184 76.3513 11.7026 79.7042C4.69307 89.175 0.665083 100.556 0.0528844 112.619C-0.279541 119.166 0.903906 122.557 5.06644 126.983C19.8346 142.688 65.4291 148.002 96.941 137.692C105.568 134.869 111.867 131.309 115.987 126.927C120.093 122.56 121.279 119.14 120.948 112.619C120.21 98.09 114.404 84.3588 104.751 74.314C101.303 70.7269 99.5897 70.1374 96.7276 71.553Z" fill="white"/>
</svg>
