<svg width="106" height="145" viewBox="0 0 106 145" fill="none" xmlns="http://www.w3.org/2000/svg">
<path fill-rule="evenodd" clip-rule="evenodd" d="M45.5269 0.491551C38.3022 1.67887 31.5086 5.16824 26.2256 10.4049C22.2231 14.3726 19.8752 18.0129 17.9852 23.1806C16.1818 28.1116 15.8665 30.9059 15.8648 41.9615L15.8635 51.6921L13.569 52.0453C7.08169 53.0437 1.60273 58.0824 0.291346 64.2562C0.033048 65.4717 -0.0465307 74.128 0.0250897 93.1815C0.127215 120.252 0.130861 120.384 0.874255 122.965C2.57557 128.873 6.30713 134.559 10.9664 138.346C13.8933 140.724 19.0118 143.281 22.8266 144.27C25.6423 144.999 25.6705 145 53 145C80.2052 145 80.3706 144.996 83.1734 144.28C86.7538 143.364 92.0003 140.789 94.7733 138.585C99.479 134.846 103.44 128.872 105.13 122.965C105.867 120.389 105.873 120.194 105.975 93.1815C106.047 74.128 105.967 65.4717 105.709 64.2562C104.808 60.0163 101.363 55.5651 97.5018 53.6529C93.7245 51.7822 94.8505 51.8356 59.2031 51.8356H26.4195L26.5498 41.061C26.6964 28.9136 26.7723 28.4613 29.5609 23.1572C31.4651 19.5343 35.8605 15.2381 39.5712 13.3719C44.4198 10.9334 46.3691 10.5193 53 10.5193C58.157 10.5193 59.0791 10.6039 61.2894 11.2785C65.8148 12.6603 68.7694 14.4007 72.0789 17.6354C76.6689 22.1212 78.8752 26.8426 79.4807 33.4743C79.6942 35.8127 79.9459 36.8921 80.4253 37.525C82.7865 40.6404 86.8844 40.6293 89.2555 37.5006C91.2612 34.8551 89.3553 24.3867 85.7166 18.0596C81.2214 10.2438 73.9891 4.43329 65.2683 1.63156C60.2917 0.0323725 51.4336 -0.478979 45.5269 0.491551ZM92.993 63.0355C93.4967 63.4029 94.2162 64.1061 94.5922 64.5984C95.27 65.4856 95.2759 65.7312 95.2759 92.2849V119.076L94.4626 121.506C92.3335 127.87 86.584 132.942 79.9392 134.318C76.6951 134.99 29.3619 135.002 26.1268 134.331C19.5559 132.97 14.002 128.179 11.6289 121.823L10.7241 119.4L10.6249 93.314C10.5702 78.9667 10.6136 66.7585 10.7211 66.1843C10.9644 64.8838 12.3584 63.2292 13.6917 62.6589C14.5193 62.305 21.7334 62.2393 53.3903 62.297C91.8909 62.3669 92.0819 62.3705 92.993 63.0355ZM49.1395 78.4343C46.8088 79.3102 44.6065 81.2924 43.4858 83.5232C42.7016 85.0838 42.5554 85.7821 42.5557 87.9672C42.556 91.606 43.8452 94.1747 46.8184 96.4602L47.6656 97.1116L47.7631 106.531C47.8556 115.46 47.896 115.998 48.5443 116.846C49.8441 118.546 50.9034 119.076 53 119.076C55.0966 119.076 56.1559 118.546 57.4557 116.846C58.1043 115.997 58.1444 115.462 58.2366 106.415C58.29 101.17 58.4587 96.8786 58.6119 96.8786C59.2588 96.8786 61.7901 93.9877 62.5842 92.3419C63.7378 89.951 63.7961 86.1448 62.7145 83.8404C60.4137 78.9385 54.2882 76.4991 49.1395 78.4343Z" fill="white"/>
</svg>
