<svg width="119" height="143" viewBox="0 0 119 143" fill="none" xmlns="http://www.w3.org/2000/svg">
<path fill-rule="evenodd" clip-rule="evenodd" d="M14.16 0.415576C7.56754 1.8602 1.95622 7.39904 0.419367 13.9789C0.0534897 15.5456 0.00118144 22.7514 0.00118144 71.4934C0.00118144 132.663 -0.103434 128.809 1.65621 132.53C3.38569 136.187 6.37554 139.212 10.0946 141.066C14.1929 143.11 10.9401 142.998 66.3103 142.998C120.973 142.998 117.322 143.12 118.439 141.269C118.966 140.398 118.998 139.877 118.999 132.161C119 123.381 118.932 122.897 117.557 121.988C115.81 120.832 113.663 121.18 112.424 122.818L111.666 123.821L111.573 129.639L111.479 135.457H64.3292C30.503 135.457 16.7649 135.368 15.7126 135.143C11.1627 134.17 7.82521 130.248 7.52465 125.52C7.23792 121.012 9.47719 117.178 13.5295 115.24L15.3531 114.368L65.7236 114.229C103.177 114.125 116.278 114.006 116.811 113.764C117.204 113.585 117.858 113.041 118.264 112.555L119 111.672L118.999 57.157C118.998 2.97104 118.994 2.63642 118.439 1.71747C117.321 -0.133839 121.018 -0.0137327 65.94 0.0105679C24.6703 0.0290027 15.6008 0.099949 14.16 0.415576ZM26.2326 15.0788C28.0517 16.1981 27.9457 13.6292 27.9457 56.6394V95.7113L27.3175 96.6604C25.6813 99.1323 22.5425 99.0759 21.0145 96.547C20.4867 95.6733 20.4751 94.818 20.4743 56.6109C20.4735 23.2611 20.5313 17.427 20.8717 16.605C21.6685 14.6805 24.3462 13.918 26.2326 15.0788Z" fill="white"/>
</svg>
