<svg width="177" height="143" viewBox="0 0 177 143" fill="none" xmlns="http://www.w3.org/2000/svg">
<path fill-rule="evenodd" clip-rule="evenodd" d="M155.793 0.826145C157.087 1.49907 157.817 2.23877 158.464 3.53584C159.355 5.31951 159.355 5.32431 159.355 26.664V48.0076L160.243 48.2424C160.732 48.3715 162.523 49.1808 164.223 50.0404C169.719 52.8193 173.971 58.024 176.222 64.726C177.259 67.8131 177.259 75.2333 176.222 78.3204C173.971 85.0225 169.719 90.2272 164.223 93.006C162.523 93.8657 160.732 94.675 160.243 94.8041L159.355 95.0388V116.382C159.355 137.722 159.355 137.727 158.464 139.511C157.312 141.819 154.812 143.23 152.332 142.969C150.547 142.782 148.248 141.299 147.388 139.779C147.009 139.109 146.84 133.59 146.69 116.943L146.492 94.9896L144.476 94.2975C137.543 91.9173 131.386 84.9549 129.478 77.3369C128.712 74.2829 128.712 68.7636 129.478 65.7096C131.375 58.1367 137.455 51.2091 144.358 48.7537L146.492 47.9945L146.69 26.0726C146.84 9.45022 147.009 3.93727 147.388 3.26755C148.248 1.74777 150.547 0.264775 152.332 0.0772512C153.565 -0.0522958 154.486 0.147223 155.793 0.826145ZM94.4489 0.582645C98.5099 1.6602 102.279 3.84891 105.33 6.90166C110.187 11.7601 112.213 16.3194 112.548 23.143C112.792 28.1158 112.19 31.0742 110.062 35.3652C107.467 40.5995 102.88 44.8741 97.6234 46.9577L94.8447 48.0592V93.084C94.8447 136.138 94.8126 138.17 94.1117 139.502C91.9342 143.642 86.2708 144.114 83.4597 140.391L82.378 138.958L82.2739 93.497L82.1703 48.0364L79.8297 47.1744C74.6135 45.2528 69.5825 40.6475 66.9902 35.4208C64.8345 31.0742 64.2321 28.1322 64.4771 23.143C64.8123 16.3194 66.8382 11.7601 71.6947 6.90166C74.8035 3.79133 78.5636 1.63542 82.758 0.558256C85.6961 -0.196236 91.5594 -0.183842 94.4489 0.582645ZM26.5749 0.517074C28.0305 1.17041 29.3508 2.57863 29.9124 4.07682C30.1989 4.84011 30.3347 15.5937 30.3347 37.4999V69.7971L32.0167 70.3049C34.3933 71.0222 36.1283 71.9735 38.8998 74.0782C44.6499 78.4452 48.124 85.6335 48.1382 93.1948C48.1462 97.3087 47.5723 99.8516 45.734 103.852C43.5952 108.506 39.3787 112.79 34.6754 115.088C32.8553 115.977 31.1337 116.705 30.8503 116.705C30.4395 116.705 30.3347 118.863 30.3347 127.313C30.3347 139.158 30.2163 139.83 27.8017 141.691C24.7108 144.073 20.3206 143.037 18.5606 139.511C17.7045 137.796 17.6701 137.32 17.6701 127.247V116.767L16.186 116.291C13.7785 115.52 10.0156 113.265 7.84242 111.291C5.08511 108.787 2.1885 104.283 1.02415 100.691C-0.304834 96.5922 -0.345211 90.2108 0.931138 86.1173C3.15654 78.9818 9.61784 72.1514 15.9212 70.2709L17.6701 69.7492V37.5347V5.31991L18.5606 3.53584C20.0336 0.585044 23.6731 -0.785993 26.5749 0.517074ZM84.4016 13.5645C80.2258 15.1427 77.4531 18.9623 77.1242 23.5892C76.8828 26.9866 77.7404 29.6743 79.8313 32.0742C82.1786 34.7683 84.8065 35.9378 88.5124 35.9378C92.2184 35.9378 94.8463 34.7683 97.1936 32.0742C99.2844 29.6743 100.142 26.9866 99.9006 23.5892C99.3418 15.7245 91.7233 10.7969 84.4016 13.5645ZM148.96 60.5577C142.782 62.684 139.608 70.5144 142.502 76.4892C146.036 83.7874 155.497 85.3904 161.176 79.6531C167.048 73.7203 164.629 63.361 156.704 60.5053C154.663 59.77 151.179 59.7936 148.96 60.5577ZM19.2104 82.6079C18.2147 83.0533 16.6581 84.1968 15.7518 85.1501C10.4121 90.7642 12.0217 100.102 18.9615 103.773C19.7336 104.181 21.515 104.521 23.4447 104.627C27.1135 104.829 29.1153 104.167 31.6561 101.914C34.1578 99.6945 35.1947 97.4634 35.4013 93.8545C35.5687 90.9329 35.4903 90.5143 34.3256 88.1244C32.1647 83.6898 28.3523 81.3904 23.6003 81.6551C22.1688 81.7351 20.2157 82.1589 19.2104 82.6079Z" fill="white"/>
</svg>
